# xmcd
#
# Track frame offsets:
#	150
#	15193
#	32160
#	51973
#	72619
#	87233
#	103502
#	119132
#	133235
#	150881
#	165610
#	181993
#
# Disc length: 2636 seconds
#
# Revision: 1
# Processed by: cddbd v1.5.2PL0 Copyright (c) Steve Scherf et al.
# Submitted via: audiograbber 1.83.01
#
DISCID=9c0a4a0c
DTITLE=PAUL BAILEY - TUSH PUSHIN'
DYEAR=1900
DGENRE=LINE DANCE
TTITLE0=TUSH PUSHIN'
TTITLE1=REVEALING YOUR LOVE
TTITLE2=LIVING MY LIFE
TTITLE3=SOMEWHERE IN MY HEART
TTITLE4=MY WONDERFUL YOU
TTITLE5=WE GOT A FRIEND
TTITLE6=FEEL THE BEAT
TTITLE7=BRING BACK MY HEART
TTITLE8=BLUE EYES
TTITLE9=REASONS
TTITLE10=GOODBYE
TTITLE11=I GET LONESOME
EXTD=
EXTT0=
EXTT1=
EXTT2=
EXTT3=
EXTT4=
EXTT5=
EXTT6=
EXTT7=
EXTT8=
EXTT9=
EXTT10=
EXTT11=
PLAYORDER=
